<svg width="220" height="74" viewBox="0 0 220 74" fill="none" xmlns="http://www.w3.org/2000/svg">
<path d="M36.455 55.8393C28.7912 55.8393 21.6048 51.0451 18.9295 43.3999C15.5457 33.7272 20.6463 23.0998 30.3004 19.709C34.9767 18.0676 40.0118 18.3469 44.4781 20.4992L42.959 23.6639C39.3367 21.9182 35.2534 21.6911 31.4602 23.0232C23.6296 25.7738 19.4927 34.3932 22.2376 42.238C24.9825 50.0827 33.5852 54.2274 41.4163 51.4779L42.5755 54.7921C40.5527 55.5027 38.4861 55.8393 36.455 55.8393Z" fill="#FF6854"/>
<path d="M88.3668 52.5149V59.7717C88.3668 60.1611 88.3812 60.5593 88.4111 60.9663C88.44 61.3738 88.5283 61.7425 88.6759 62.0729C88.823 62.4034 89.0558 62.6718 89.3738 62.8781C89.6917 63.0849 90.1392 63.1878 90.7162 63.1878C91.2933 63.1878 91.7377 63.0849 92.05 62.8781C92.3623 62.6718 92.5945 62.4034 92.7478 62.0729C92.9011 61.7425 92.9925 61.3738 93.0219 60.9663C93.0513 60.5593 93.0658 60.1611 93.0658 59.7717V52.5149H96.5106V60.2495C96.5106 62.3263 96.0368 63.843 95.0891 64.7987C94.1404 65.7538 92.6833 66.2321 90.7162 66.2321C88.7492 66.2321 87.289 65.7538 86.3352 64.7987C85.3808 63.843 84.9039 62.3263 84.9039 60.2495V52.5149H88.3668Z" fill="#2A274B"/>
<path d="M101.776 65.8604V52.5151H105.239L111.634 60.6742V52.5151H115.079V65.8604H111.634L105.239 57.7013V65.8604H101.776Z" fill="#2A274B"/>
<path d="M123.806 52.5151H120.343V65.8605H123.806V52.5151Z" fill="#2A274B"/>
<path d="M131.438 52.5149L134.653 60.6389L137.886 52.5149H141.649L136.031 65.8603H133.275L127.675 52.5149H131.438Z" fill="#2A274B"/>
<path d="M153.097 55.4529H148.981V57.6832H152.867V60.621H148.981V62.9227H153.097V65.8605H145.518V52.5151H153.097V55.4529Z" fill="#2A274B"/>
<path d="M161.524 58.4801H162.177C162.86 58.4801 163.384 58.3384 163.749 58.055C164.114 57.7721 164.297 57.3646 164.297 56.8336C164.297 56.3025 164.114 55.8955 163.749 55.6121C163.384 55.3292 162.86 55.1876 162.177 55.1876H161.524V58.4801ZM169.138 65.8604H164.827L161.524 60.7275V65.8604H158.061V52.5151H163.45C164.191 52.5151 164.839 52.6242 165.392 52.8424C165.946 53.0606 166.402 53.3585 166.762 53.736C167.121 54.114 167.392 54.5505 167.575 55.0464C167.757 55.5413 167.848 56.0729 167.848 56.6391C167.848 57.6542 167.604 58.4765 167.115 59.1084C166.626 59.7393 165.905 60.1675 164.951 60.3914L169.138 65.8604Z" fill="#2A274B"/>
<path d="M180.374 55.931C179.997 55.6238 179.62 55.3968 179.243 55.2495C178.866 55.1021 178.501 55.0286 178.148 55.0286C177.7 55.0286 177.335 55.1341 177.053 55.3472C176.77 55.5592 176.629 55.8369 176.629 56.1787C176.629 56.4145 176.699 56.6095 176.841 56.7631C176.982 56.9166 177.167 57.049 177.397 57.1607C177.626 57.2735 177.885 57.3707 178.174 57.4529C178.463 57.5357 178.748 57.6241 179.031 57.7187C180.162 58.0967 180.989 58.6009 181.513 59.2318C182.037 59.8632 182.3 60.6865 182.3 61.7011C182.3 62.3857 182.185 63.0053 181.955 63.5596C181.726 64.1145 181.39 64.5887 180.948 64.9843C180.506 65.3794 179.964 65.6865 179.323 65.9048C178.68 66.123 177.954 66.2321 177.141 66.2321C175.456 66.2321 173.896 65.731 172.459 64.7273L173.944 61.9307C174.461 62.3914 174.974 62.7338 175.48 62.9571C175.987 63.1816 176.487 63.2938 176.982 63.2938C177.547 63.2938 177.968 63.164 178.245 62.9049C178.521 62.6448 178.66 62.3506 178.66 62.0196C178.66 61.819 178.625 61.6452 178.554 61.4978C178.484 61.3505 178.365 61.2145 178.201 61.0903C178.036 60.9662 177.821 60.852 177.556 60.7454C177.291 60.6389 176.97 60.521 176.593 60.3912C176.145 60.2495 175.707 60.0933 175.277 59.9222C174.847 59.7515 174.464 59.5235 174.129 59.2406C173.793 58.9577 173.522 58.6009 173.316 58.1696C173.11 57.7394 173.007 57.1938 173.007 56.5324C173.007 55.8721 173.116 55.2732 173.333 54.736C173.551 54.1992 173.857 53.7395 174.252 53.3552C174.647 52.972 175.13 52.6742 175.701 52.4616C176.272 52.2496 176.911 52.1431 177.618 52.1431C178.277 52.1431 178.966 52.2346 179.685 52.4172C180.403 52.6008 181.092 52.8686 181.752 53.2228L180.374 55.931Z" fill="#2A274B"/>
<path d="M190.408 52.5152H186.945V65.8605H190.408V52.5152Z" fill="#2A274B"/>
<path d="M200.726 55.4529V65.8605H197.263V55.4529H194.418V52.5151H203.569V55.4529H200.726Z" fill="#2A274B"/>
<path d="M211.661 59.4534L206.803 52.5152H210.937L213.41 56.1609L215.866 52.5152H220L215.124 59.4534V65.8606H211.661V59.4534Z" fill="#2A274B"/>
<path d="M57.2621 43.6563L59.2163 43.6548L61.5209 37.3123L63.8224 43.6507L65.7797 43.6486L70.3001 31.2082L69.1584 31.2092L65.4932 41.3184L61.6876 31.2159L59.3117 31.218L60.9541 35.7454L58.9324 41.3247L55.1263 31.2216L51.6175 31.2247L51.618 31.6291C53.0131 31.8572 52.9972 31.9016 53.3677 32.9209L57.2621 43.6563Z" fill="#2A274B"/>
<path d="M100.752 42.7492C99.9275 42.7499 99.5148 42.2881 99.5141 41.3638L99.5058 31.1822L97.0954 31.1843L97.1057 43.6211L104.442 43.6143L104.441 42.7461L100.752 42.7492Z" fill="#2A274B"/>
<path d="M90.9104 37.8715C92.893 37.6243 93.997 36.6087 93.9955 34.4942C93.9929 31.1872 90.1728 31.1908 88.7911 31.1918L84.7124 31.1954L84.7228 43.6322L87.1322 43.6302L87.1224 32.0601L88.6621 32.059C90.211 32.0575 91.3543 32.6144 91.3559 34.6116C91.3579 36.8812 89.6794 37.3213 88.4809 37.3223H88.1696L92.1234 43.6255L94.763 43.6234L90.9104 37.8715Z" fill="#2A274B"/>
<path d="M110.181 42.741C108.907 42.742 108.906 42.243 108.906 41.5232L108.898 32.0407L110.411 32.0396C113.878 32.0366 114.267 34.1231 114.27 37.3976C114.274 41.1281 113.537 42.7379 110.181 42.741ZM110.757 31.1724L106.488 31.1761L106.498 43.6128L110.16 43.6097C113.756 43.6061 116.834 43.195 116.83 37.3588C116.825 32.1286 114.263 31.1693 110.757 31.1724Z" fill="#2A274B"/>
<path d="M76.526 43.1632C73.7656 43.1657 73.5499 39.9808 73.5473 37.4215C73.5452 34.8639 73.7559 31.6815 76.5162 31.6794C79.226 31.6768 79.3896 34.9373 79.3917 37.4164C79.3938 39.9032 79.2358 43.1611 76.526 43.1632ZM76.5245 30.7724C72.1455 30.776 70.9335 33.3606 70.9366 37.4748C70.9402 41.588 72.1568 44.0754 76.5358 44.0717C80.7342 44.0681 82.0019 41.5782 81.9983 37.465C81.9947 33.3508 80.7234 30.7688 76.5245 30.7724Z" fill="#2A274B"/>
<path d="M140.906 31.1462L140.912 39.2298C140.914 41.0987 140.838 43.1486 137.786 43.1512C135.149 43.1532 135.148 41.1039 135.146 39.235L135.14 31.1513L132.732 31.1534L132.739 39.734C132.742 43.0948 134.542 44.0205 137.787 44.0179C142.165 44.0137 142.241 41.2719 142.239 38.798L142.233 31.1451L140.906 31.1462Z" fill="#2A274B"/>
<path d="M179.773 31.98L179.772 31.1112L169.801 31.12L169.801 31.9888L173.582 31.9857L173.592 43.5532L176.001 43.5511L175.991 31.9831L179.773 31.98Z" fill="#2A274B"/>
<path d="M166.581 31.123L166.589 41.1785H166.551L160.733 31.1282L158.307 31.1303L158.318 43.5671L159.48 43.5661L159.47 33.0488H159.507L165.603 43.5604L167.755 43.5583L167.744 31.122L166.581 31.123Z" fill="#2A274B"/>
<path d="M150.971 41.2428L148.969 35.9258L152.897 35.9227L150.971 41.2428ZM154.632 31.1336L153.215 35.0555L148.641 35.0596L147.164 31.1403L143.657 31.1434V31.5478C145.051 31.7754 145.034 31.8203 145.407 32.8391L149.302 43.5751L151.256 43.573L155.776 31.1326L154.632 31.1336Z" fill="#2A274B"/>
<path d="M129.946 37.4221C129.943 33.3079 128.671 30.7264 124.473 30.73C120.09 30.7337 118.882 33.3177 118.886 37.4319C118.889 41.5451 120.104 44.033 124.485 44.0289L130.53 44.0237V43.6172C129.135 43.3923 128.099 43.1684 128.747 42.328C129.622 41.1904 129.948 39.5134 129.946 37.4221ZM124.475 43.1208C121.713 43.1234 121.496 39.9384 121.494 37.3792C121.492 34.8215 121.704 31.6391 124.465 31.6365C127.174 31.6345 127.336 34.8949 127.338 37.374C127.34 39.8609 127.184 43.1182 124.475 43.1208Z" fill="#2A274B"/>
<path d="M65.4282 54.2275C59.6008 63.9489 49.4739 69.918 38.3663 70.4181V73.9195C50.7039 73.4164 61.9664 66.8246 68.4327 56.0354L65.4282 54.2275Z" fill="#2A274B"/>
<path d="M3.5047 38.6898H0C0.558999 50.6302 6.86432 62.0875 17.8372 68.6891C22.2498 71.3435 27.0247 73.0086 32.0572 73.6581V70.1086C27.6709 69.4813 23.503 68.0013 19.6417 65.6779C9.76046 59.7331 4.05903 49.4372 3.5047 38.6898Z" fill="#2A274B"/>
<path d="M5.20724 17.9975C2.48814 22.5342 0.867417 27.4272 0.249068 32.3683H3.77645C4.37571 28.0473 5.83281 23.7758 8.21226 19.8054C17.6842 4.0016 38.224 -1.1355 53.9986 8.35474L55.8031 5.34456C38.3711 -5.14423 15.6738 0.533769 5.20724 17.9975Z" fill="#2A274B"/>
<path d="M21.0231 18.7574C25.1925 15.1784 30.5084 13.0949 36.1985 12.9651L36.1185 9.45435C29.5442 9.60484 23.4036 12.0291 18.6101 16.1971L21.0231 18.7574Z" fill="#FEC260"/>
<path d="M16.0037 24.7118C16.6278 23.6704 17.3282 22.6956 18.0823 21.7756L15.6605 19.206C14.6875 20.3551 13.7905 21.5832 12.9992 22.904C9.19361 29.2532 8.08387 36.707 9.8739 43.8924C10.9274 48.1209 12.9177 51.9533 15.6631 55.1724L18.1488 52.6819C15.8437 49.9148 14.1719 46.642 13.2748 43.0418C11.7114 36.7665 12.6807 30.2564 16.0037 24.7118Z" fill="#FEC260"/>
<path d="M50.0037 57.4163C42.2862 62.4908 32.1902 62.695 24.2823 57.936C23.1571 57.2591 22.1026 56.4973 21.1177 55.6668L18.6325 58.1568C19.8232 59.1828 21.1038 60.1208 22.4773 60.9472C26.8383 63.5711 31.7799 64.8763 36.7185 64.8763C42.0343 64.8763 47.3466 63.3632 51.9269 60.352L50.0037 57.4163Z" fill="#FEC260"/>
<path d="M57.4463 23.5744L60.4188 21.7293C57.8933 17.8287 54.3581 14.5118 49.9517 12.222C47.277 10.832 44.4464 9.90791 41.555 9.44199L41.0037 12.8984C43.5303 13.3059 46.0042 14.1173 48.3419 15.3325C52.1676 17.3203 55.2418 20.1945 57.4463 23.5744Z" fill="#FEC260"/>
<path d="M30.6814 34.8303C30.8259 34.4264 31.0107 34.0334 31.2358 33.6574C32.1318 32.163 33.5548 31.107 35.2426 30.6855C35.7696 30.5532 36.3023 30.488 36.8319 30.488C37.9984 30.488 39.1473 30.8045 40.1734 31.4219C41.4834 32.21 42.4543 33.4051 42.9571 34.8303H46.5908C46.0127 32.2405 44.4229 29.8814 41.9779 28.4107C37.2422 25.5629 31.0747 27.105 28.2312 31.8491C27.6691 32.7871 27.2784 33.7929 27.0461 34.8303L30.6814 34.8303Z" fill="#19B6BC"/>
<path d="M42.9565 39.2096C42.8125 39.6114 42.6282 40.0013 42.4037 40.3757C41.5086 41.8702 40.0856 42.9257 38.3973 43.3476C36.7105 43.7722 34.9587 43.509 33.467 42.6113C32.1591 41.8247 31.1887 40.6312 30.6849 39.2096H27.0522C27.0698 39.2888 27.0796 39.3684 27.0992 39.4475C27.7475 42.0486 29.3682 44.2412 31.6625 45.622C33.2409 46.5714 35.0072 47.0585 36.8019 47.0585C37.6158 47.0585 38.436 46.9582 39.2469 46.7555C41.8431 46.106 44.0316 44.4822 45.4092 42.1836C45.9765 41.2368 46.3667 40.2325 46.5943 39.2096H42.9565Z" fill="#19B6BC"/>
</svg>
